<svg width="1294" height="1425" viewBox="0 0 1294 1425" fill="none" xmlns="http://www.w3.org/2000/svg">
<path d="M647.159 712.471L970.368 525.867L647.159 339.267V712.471Z" fill="#7A2482"/>
<path d="M647.159 712.471L323.95 525.867V899.076L647.159 712.471Z" fill="#252160"/>
<path d="M647.159 339.267L323.95 525.867L647.159 712.471V339.267Z" fill="#8F258D"/>
<path d="M323.95 899.076L647.159 1085.68V712.471L323.95 899.076Z" fill="#3C2369"/>
<path d="M647.159 712.471L970.368 899.076V525.867L647.159 712.471Z" fill="#652478"/>
<path d="M647.159 712.471V1085.68L970.368 899.076L647.159 712.471Z" fill="#512471"/>
<path d="M1293.57 712.471L970.368 525.867V899.076L1293.57 712.471Z" fill="#512471"/>
<path d="M0.741821 712.471L323.95 899.076V525.867L0.741821 712.471Z" fill="#3C2369"/>
<path d="M323.95 1272.28L647.159 1085.68L323.95 899.076V1272.28Z" fill="#512471"/>
<path d="M970.368 899.076L647.159 1085.68L970.368 1272.28V899.076Z" fill="#3C2369"/>
<path d="M323.95 152.663V525.867L647.159 339.267L323.95 152.663Z" fill="#7A2482"/>
<path d="M647.159 339.267L970.368 525.867V152.663L647.159 339.267Z" fill="#652478"/>
<path d="M323.95 899.076L30.4085 1068.56C49.5252 1101.66 77.2002 1129.82 111.454 1149.6L323.95 1272.28V899.076Z" fill="#3C2369"/>
<path d="M0.741821 712.471V957.838C0.741821 997.392 11.2918 1035.44 30.4085 1068.56L323.95 899.076L0.741821 712.471Z" fill="#252160"/>
<path d="M1293.57 712.471L970.368 899.076L1263.91 1068.56C1283.02 1035.44 1293.57 997.392 1293.57 957.838V712.471Z" fill="#3C2369"/>
<path d="M970.368 899.076V1272.28L1182.86 1149.6C1217.11 1129.82 1244.79 1101.66 1263.91 1068.56L970.368 899.076Z" fill="#252160"/>
<path d="M647.159 1424.63C685.388 1424.63 723.617 1414.74 757.872 1394.96L970.368 1272.28L647.159 1085.68V1424.63Z" fill="#252160"/>
<path d="M323.95 1272.28L536.446 1394.96C570.701 1414.74 608.93 1424.63 647.159 1424.63V1085.68L323.95 1272.28Z" fill="#3C2369"/>
<path d="M323.95 525.867V152.663L111.454 275.346C77.2002 295.125 49.5252 323.288 30.4085 356.396L323.95 525.867Z" fill="#652478"/>
<path d="M30.4085 356.396C11.296 389.5 0.741821 427.55 0.741821 467.105V712.471L323.95 525.867L30.4085 356.396Z" fill="#512471"/>
<path d="M647.159 0.3125C608.93 0.3125 570.701 10.2042 536.446 29.9792L323.95 152.663L647.159 339.267V0.3125Z" fill="#8F258D"/>
<path d="M970.368 152.663L757.872 29.9792C723.617 10.2042 685.388 0.3125 647.159 0.3125V339.267L970.368 152.663Z" fill="#7A2482"/>
<path d="M970.368 525.867L1263.91 356.396C1244.79 323.288 1217.11 295.125 1182.86 275.346L970.368 152.663V525.867Z" fill="#7A2482"/>
<path d="M1293.57 712.471V467.105C1293.57 427.55 1283.02 389.5 1263.91 356.396L970.368 525.867L1293.57 712.471Z" fill="#8F258D"/>
<path d="M857.359 701.83H839.893C826.305 701.83 820.968 708.138 820.968 724.634V856.83C820.968 905.838 799.13 923.305 738.963 923.305H710.334V865.563C743.813 865.563 754.005 856.83 754.005 833.538V729.488C754.005 695.521 764.197 679.509 792.338 672.23C764.197 665.438 754.005 649.421 754.005 615.459V591.405C754.005 568.117 743.813 559.38 710.334 559.38V501.638H738.963C799.13 501.638 820.968 519.109 820.968 567.63V620.309C820.968 636.321 826.305 642.63 839.893 642.63H857.359V701.83ZM583.984 559.38C550.017 559.38 539.826 568.117 539.826 591.405V615.459C539.826 649.421 530.121 665.438 501.98 672.23C530.121 679.509 539.826 695.521 539.826 729.488V833.538C539.826 856.83 550.017 865.563 583.984 865.563V923.305H555.355C495.188 923.305 473.351 905.838 473.351 856.83V724.634C473.351 708.138 468.013 701.83 454.426 701.83H436.959V642.63H454.426C468.013 642.63 473.351 636.321 473.351 620.309V567.63C473.351 519.109 495.188 501.638 555.355 501.638H583.984V559.38ZM1054.58 621.2L929.913 405.275C897.301 348.796 837.043 314.004 771.826 314.004H522.492C457.276 314.004 397.013 348.796 364.405 405.275L239.738 621.2C207.129 677.68 207.129 747.263 239.738 803.742L364.405 1019.67C397.013 1076.15 457.276 1110.94 522.492 1110.94H771.826C837.043 1110.94 897.301 1076.15 929.913 1019.67L1054.58 803.742C1087.18 747.263 1087.18 677.68 1054.58 621.2Z" fill="white"/>
</svg>
